<?xml version="1.0" encoding="UTF-8"?><svg width="2048" height="2048" viewBox="0 0 2048 2048" xmlns="http://www.w3.org/2000/svg"><title>SidebarItem</title><g fill="#000" fill-rule="evenodd"><path d="M80 307.5h1888c44.182 0 80 35.818 80 80s-35.818 80-80 80H80c-44.182 0-80-35.818-80-80s35.818-80 80-80zM80 943.5h1888c44.182 0 80 35.818 80 80s-35.818 80-80 80H80c-44.182 0-80-35.818-80-80s35.818-80 80-80zM80 1580.5h1888c44.182 0 80 35.818 80 80s-35.818 80-80 80H80c-44.182 0-80-35.818-80-80s35.818-80 80-80z"/></g></svg>